<svg width="50" height="50" viewBox="0 0 50 50" fill="none" xmlns="http://www.w3.org/2000/svg" class="hd__nav__link__icon"><path d="M33.7499 0H16.25C7.27537 0 0 7.27537 0 16.25V33.75C0 42.7246 7.27537 49.9999 16.25 49.9999H33.7499C42.7246 49.9999 50 42.7246 50 33.75V16.25C50 7.27537 42.7246 0 33.7499 0Z" fill="#F9EDF2"></path> <path d="M25.363 16.9678C31.6336 15.797 36.3194 12.7175 35.829 10.0879C35.3385 7.45838 29.858 6.27588 23.5874 7.44667C17.3168 8.61746 12.631 11.697 13.1214 14.3265C13.6119 16.9561 19.0924 18.1386 25.363 16.9678Z" fill="#FF5805"></path> <path d="M28.2436 39.5088C37.6684 35.1164 43.6214 27.9314 41.5399 23.4616C39.4584 18.9917 30.1308 18.9296 20.706 23.3221C11.2811 27.7146 5.3282 34.8995 7.4097 39.3694C9.49121 43.8392 18.8188 43.9013 28.2436 39.5088Z" fill="#2A3362"></path> <path d="M41.7702 26.1082C43.0814 23.2429 37.7494 17.9909 29.8608 14.3769C21.9721 10.7628 14.5145 10.1563 13.2033 13.0216C11.8922 15.8869 17.2242 21.1388 25.1128 24.7529C33.0015 28.367 40.4591 28.9735 41.7702 26.1082Z" fill="#FF9B00"></path> <path d="M28.2436 39.5088C37.6684 35.1164 43.6214 27.9314 41.5399 23.4616C39.4584 18.9917 30.1308 18.9296 20.706 23.3221C11.2811 27.7146 5.3282 34.8995 7.4097 39.3694C9.49121 43.8392 18.8188 43.9013 28.2436 39.5088Z" fill="#F4AFCB"></path> <path d="M41.7702 26.1082C43.0814 23.2429 37.7494 17.9909 29.8608 14.3769C21.9721 10.7628 14.5145 10.1563 13.2033 13.0216C11.8922 15.8869 17.2242 21.1388 25.1128 24.7529C33.0015 28.367 40.4591 28.9735 41.7702 26.1082Z" fill="#009A46"></path></svg>